<svg xmlns="http://www.w3.org/2000/svg" xmlns:xlink="http://www.w3.org/1999/xlink" width="35" height="34.999" viewBox="0 0 35 34.999">
  <defs>
    <linearGradient id="linear-gradient" x1="0.285" y1="0.274" x2="1" y2="0.866" gradientUnits="objectBoundingBox">
      <stop offset="0" stop-color="#fd6161"/>
      <stop offset="1" stop-color="#faad1b"/>
    </linearGradient>
  </defs>
  <path id="Instagram" d="M32.08,32c-1.9,1.922-4.541,3-9.1,3H12.023c-4.563,0-7.2-1.074-9.1-3C1.043,30.107,0,27.461,0,22.976V12.025C0,7.538,1.043,4.894,2.92,3c1.9-1.922,4.54-3,9.1-3H22.975c4.563,0,7.2,1.076,9.1,3,.122.122.233.256.346.388a1.09,1.09,0,1,1-1.537,1.535l-.014.011c-.113-.134-.219-.273-.343-.4-1.663-1.682-4.119-2.342-8.114-2.342H12.576c-3.994,0-6.444.66-8.108,2.342C2.826,6.194,2.187,8.657,2.187,12.581v9.842c0,3.926.639,6.382,2.281,8.041,1.664,1.682,4.114,2.348,8.108,2.348h9.842c3.994,0,6.45-.667,8.114-2.348,1.643-1.658,2.275-4.114,2.275-8.041V12.581a26.124,26.124,0,0,0-.119-2.614h0a1.1,1.1,0,0,1,2.193-.224.439.439,0,0,1,0,.046h0c.067.7.113,1.426.113,2.236V22.976c0,4.485-1.044,7.131-2.92,9.027M26.242,7.114a1.642,1.642,0,0,1,3.283-.025V7.14a1.642,1.642,0,0,1-3.283-.026M8.831,18.757a8.751,8.751,0,1,1,9.91,7.414c-.054.008-.106.008-.159.014l.162-.022A1.094,1.094,0,0,1,18.433,24l0,0h0a6.561,6.561,0,1,0-7.43-5.558s0,0,0,0l0,0a1.094,1.094,0,0,1-2.166.312l.024.163c-.008-.053-.022-.1-.03-.157m3.194,3.12a1.09,1.09,0,1,1-1.089,1.09,1.09,1.09,0,0,1,1.089-1.09" transform="translate(0 0)" fill-rule="evenodd" fill="url(#linear-gradient)"/>
</svg>
