<svg xmlns="http://www.w3.org/2000/svg" width="35" height="29.851" viewBox="0 0 35 29.851">
  <g id="Group_146" data-name="Group 146" transform="translate(-35 -183.574)">
    <path id="Twitter" d="M8.2,27.185a1.067,1.067,0,1,1-1.095,1.067A1.081,1.081,0,0,1,8.2,27.185M4.378,1.6h0M2.189,22.388c-.087-.011.087,0,0,0M35,5.054a2.117,2.117,0,0,1-.41,1.255A12.652,12.652,0,0,1,32,8.83a1.044,1.044,0,0,0-.287.577,21.667,21.667,0,0,1-4.982,13.455,19.722,19.722,0,0,1-14.7,6.989,1.067,1.067,0,1,1,0-2.132c10.825,0,16.729-9.216,17.429-17.093a1.692,1.692,0,0,0,.053-.48c0-.066,0-.132,0-.2A3.428,3.428,0,0,1,30.64,7.614a.8.8,0,0,0,.077-.079,15.978,15.978,0,0,0,2.09-2.482,12.582,12.582,0,0,1-2.51.8h-.011a.271.271,0,0,1-.273-.268.263.263,0,0,1,.08-.188h0a6.174,6.174,0,0,0,1.87-2.786,12.616,12.616,0,0,1-1.791.865,3.626,3.626,0,0,1-1.354.261,3.6,3.6,0,0,1-1.966-.579,5.871,5.871,0,0,0-3.331-1.021l-.129.023a5.586,5.586,0,0,0-5.824,4.914,2.715,2.715,0,0,1-2.694,2.208,2.854,2.854,0,0,1-.451-.036A17.03,17.03,0,0,1,5.129,4.566a.836.836,0,0,0-1.149.019.785.785,0,0,0-.172.248c-.013.028-.023.042-.03.044a5.187,5.187,0,0,0-.5,2.056,5.912,5.912,0,0,0,1.548,3.887.524.524,0,0,1,.093.3.541.541,0,0,1-.547.533.574.574,0,0,1-.2-.038.055.055,0,0,1-.032-.006A.551.551,0,0,0,3.9,11.55a.539.539,0,0,0-.546.533v0A6.59,6.59,0,0,0,6.418,16.63h0a.527.527,0,0,1,.246.446.538.538,0,0,1-.545.532H6.081l-.086-.01a.27.27,0,0,0-.236.264.259.259,0,0,0,.029.119.013.013,0,0,1,0,.009A6.21,6.21,0,0,0,7.98,20.7a2.045,2.045,0,0,1,.208.174,1.833,1.833,0,0,1,0,2.639,1.905,1.905,0,0,1-.789.464c-.04.012-.062.022-.066.032a12.04,12.04,0,0,1-3.505.517H3.144a.27.27,0,0,0-.273.266.26.26,0,0,0,.107.21q.623.36,1.284.7a1.03,1.03,0,0,1,.651.95,1.042,1.042,0,0,1-1.055,1.028,1.068,1.068,0,0,1-.618-.2c-.771-.4-1.519-.821-2.23-1.269a2.14,2.14,0,0,1-.882-2.544,2.052,2.052,0,0,1,2.06-1.273c.407.047,1.224,0,1.641,0a9.621,9.621,0,0,0,2.323-.356A8.314,8.314,0,0,1,3.537,18.2a2.129,2.129,0,0,1-.044-1.16,8.84,8.84,0,0,1-2.4-5.842,2.158,2.158,0,0,1,.716-1.361,8.4,8.4,0,0,1-.716-2.9,8.449,8.449,0,0,1,1.335-4.2A2.687,2.687,0,0,1,4.378,1.6a2.172,2.172,0,0,1,1.651.856C8.085,4.94,11.3,6.281,14.471,7.048a1.235,1.235,0,0,0,.2.018A1.1,1.1,0,0,0,15.7,6.348,7.8,7.8,0,0,1,23.383,0a8.613,8.613,0,0,1,4.7,1.4,1.373,1.373,0,0,0,.7.185,1.383,1.383,0,0,0,.512-.1c.04-.016.074-.026.1-.035a10.557,10.557,0,0,0,1.445-.7,2.759,2.759,0,0,1,2.488.168,2.136,2.136,0,0,1,.724,2.345.01.01,0,0,0,0,.006A2.147,2.147,0,0,1,35,5.056" transform="translate(34.998 183.574)" fill="#02aded" fill-rule="evenodd"/>
  </g>
</svg>
